<svg id="性别" xmlns="http://www.w3.org/2000/svg" width="26" height="26" viewBox="0 0 26 26">
  <defs>
    <style>
      .cls-1 {
        fill: #409eff;
      }

      .cls-2 {
        fill: #fff;
      }
    </style>
  </defs>
  <rect id="矩形_812" data-name="矩形 812" class="cls-1" width="26" height="26" rx="6"/>
  <path id="路径_171" data-name="路径 171" class="cls-2" d="M-491.706,1136.087v-2.856l.988.8a1.038,1.038,0,0,0,1.245,0,.62.62,0,0,0,.139-.865.624.624,0,0,0-.139-.141l-2.49-2.013a1.035,1.035,0,0,0-1.247,0l-2.49,2.013a.618.618,0,0,0-.141.865.6.6,0,0,0,.141.141,1.006,1.006,0,0,0,.623.208,1,1,0,0,0,.622-.208l.988-.8v2.856a4.4,4.4,0,0,0-3.522,4.313,4.4,4.4,0,0,0,4.4,4.4,4.4,4.4,0,0,0,4.4-4.4A4.4,4.4,0,0,0-491.706,1136.087Zm-.88,6.954a2.641,2.641,0,0,1-2.641-2.641,2.64,2.64,0,0,1,2.641-2.641,2.641,2.641,0,0,1,2.641,2.641A2.642,2.642,0,0,1-492.587,1143.041Z" transform="translate(505.223 -1125.158)"/>
</svg>
