<svg id="性别" xmlns="http://www.w3.org/2000/svg" width="26" height="26" viewBox="0 0 26 26">
  <defs>
    <style>
      .cls-1 {
        fill: #ff6499;
      }

      .cls-2 {
        fill: #fff;
      }
    </style>
  </defs>
  <rect id="矩形_812" data-name="矩形 812" class="cls-1" width="26" height="26" rx="6"/>
  <path id="路径_172" data-name="路径 172" class="cls-2" d="M-474.125,1142h-2.625v-1.839a4.374,4.374,0,0,0,3.5-4.286,4.374,4.374,0,0,0-4.375-4.375,4.374,4.374,0,0,0-4.375,4.375,4.374,4.374,0,0,0,3.5,4.286V1142h-2.625a.875.875,0,0,0-.875.875.875.875,0,0,0,.875.875h2.625v.875a.875.875,0,0,0,.875.875.875.875,0,0,0,.875-.875v-.875h2.625a.875.875,0,0,0,.875-.875A.875.875,0,0,0-474.125,1142Zm-6.125-6.125a2.626,2.626,0,0,1,2.625-2.625,2.626,2.626,0,0,1,2.625,2.625,2.626,2.626,0,0,1-2.625,2.625A2.626,2.626,0,0,1-480.25,1135.875Z" transform="translate(490.272 -1125.864)"/>
</svg>
