<svg xmlns="http://www.w3.org/2000/svg" width="20.585" height="23.929" viewBox="0 0 20.585 23.929">
  <defs>
    <style>
      .cls-1 {
        fill: none;
        stroke: #e6e6e6;
        stroke-width: 2px;
      }
    </style>
  </defs>
  <g id="nocontract" transform="translate(0 1)">
    <g id="组_263" data-name="组 263">
      <path id="路径_182" data-name="路径 182" class="cls-1" d="M-422.99,1151.18h-18v-3.219a1.8,1.8,0,0,1,.624-1.383,3.262,3.262,0,0,1,1.239-.634l.021-.006,2.884-.667c1.144-.353,1.3-.784,1.3-1.158v-1.929a.428.428,0,0,0-.133-.31,4.551,4.551,0,0,1-1.162-1.74,4.489,4.489,0,0,1-.237-2.189,4.5,4.5,0,0,1,1.32-2.6,4.517,4.517,0,0,1,2.63-1.258,4.581,4.581,0,0,1,1.932.193,4.5,4.5,0,0,1,1.6.927,4.512,4.512,0,0,1,1.507,3.366,4.468,4.468,0,0,1-.374,1.8,4.566,4.566,0,0,1-1.01,1.453.593.593,0,0,0-.191.429v1.863c0,.358.1.771,1.3,1.158l2.892.67.033.01a3.693,3.693,0,0,1,1.247.655,1.727,1.727,0,0,1,.588,1.356v3.221Z" transform="translate(442.367 -1134.054)"/>
      <line id="直线_38" data-name="直线 38" class="cls-1" x2="20.585" transform="translate(0 21.929)"/>
    </g>
  </g>
</svg>
