<svg xmlns="http://www.w3.org/2000/svg" width="46.665" height="40" viewBox="0 0 46.665 40">
  <defs>
    <style>
      .cls-1 {
        fill: #fff;
      }
    </style>
  </defs>
  <g id="cache" transform="translate(-65.9 -64.3)">
    <path id="路径_40" data-name="路径 40" class="cls-1" d="M10.34,20.283V0H7.008V20.288L2.355,15.635,0,17.99l8.679,8.679,8.679-8.679L15,15.635Zm0,0" transform="translate(97.917 104.3) rotate(180)"/>
    <path id="路径_41" data-name="路径 41" class="cls-1" d="M102.455,76A13.321,13.321,0,0,0,76.01,76a10.827,10.827,0,0,0,.721,21.63h5.833V94.3H76.736a7.494,7.494,0,0,1-.5-14.972l2.752-.183.334-2.742a9.991,9.991,0,0,1,19.834,0l.334,2.742,2.752.183a7.494,7.494,0,0,1-.5,14.972H95.9v3.332h5.833A10.827,10.827,0,0,0,102.455,76Zm0,0" transform="translate(0 0)"/>
  </g>
</svg>
