<svg xmlns="http://www.w3.org/2000/svg" width="56.335" height="52" viewBox="0 0 56.335 52">
  <defs>
    <style>
      .cls-1 {
        fill: #5b93ff;
      }
    </style>
  </defs>
  <path id="child" class="cls-1" d="M37.084,7.848c11.892,3.834,14.328,16.133,14.359,21.408a6.155,6.155,0,0,1,3.33,1.786,6.084,6.084,0,0,1,1.888,4.54,6.437,6.437,0,0,1-6.441,6.443,6.325,6.325,0,0,1-2.271-.405,23.625,23.625,0,0,1-3.246,4,22.106,22.106,0,0,1-16.217,6.725,22.214,22.214,0,0,1-16.236-6.722,24.557,24.557,0,0,1-3.293-4.084,6.594,6.594,0,0,1-2.206.361,6.115,6.115,0,0,1-4.535-1.888,6.449,6.449,0,0,1,0-9.118,6.139,6.139,0,0,1,3.333-1.776C5.611,23.16,9.919,7.991,26.891,6.767l.038-.079Q28.492,3.515,25.363.346q13,2.4,11.721,7.5ZM39.567,36.8a.5.5,0,0,0-.15-.241.445.445,0,0,0-.3-.153.3.3,0,0,0-.157-.019H18.78a.521.521,0,0,0-.4.172.554.554,0,0,0-.156.31.218.218,0,0,0-.013.09.7.7,0,0,0,.029.2,9.909,9.909,0,0,0,.491,1.667v.041c.019.019.019.047.031.063a10.532,10.532,0,0,0,5.567,6.051c.239.1.467.2.689.3a10.362,10.362,0,0,0,7.562.031,10.61,10.61,0,0,0,6.475-6.385,2.916,2.916,0,0,1,.141-.4.067.067,0,0,0,.012-.044A9.636,9.636,0,0,0,39.57,37.1c0-.013,0-.032.013-.041a.94.94,0,0,0-.013-.257h0Zm-20.461-7.11a2.536,2.536,0,1,0-2.5-2.535,2.52,2.52,0,0,0,2.5,2.535Zm18.777,0a2.536,2.536,0,1,0-2.5-2.535A2.52,2.52,0,0,0,37.883,29.694Z" transform="translate(-0.326 -0.346)"/>
</svg>
