<svg xmlns="http://www.w3.org/2000/svg" width="41.488" height="50.25" viewBox="0 0 41.488 50.25">
  <defs>
    <style>
      .cls-1 {
        fill: #5b93ff;
      }
    </style>
  </defs>
  <path id="control" class="cls-1" d="M185.04,103.739a24.05,24.05,0,0,1-10.7,2.544,26.112,26.112,0,0,1-10.372-2.227l-2.593,2.227a3.174,3.174,0,0,0,2.269,5.406h22.04c2.917,0,4.214-3.181,2.269-5.406Zm-10.7-31.168a9.225,9.225,0,1,1-9.4,9.223,9.319,9.319,0,0,1,9.4-9.223Zm0-11.131A20.488,20.488,0,0,0,153.6,81.795a20.755,20.755,0,0,0,20.744,20.672,20.488,20.488,0,0,0,20.744-20.354A20.755,20.755,0,0,0,174.344,61.44Z" transform="translate(-153.6 -61.44)"/>
</svg>
