<svg xmlns="http://www.w3.org/2000/svg" width="45.001" height="48.641" viewBox="0 0 45.001 48.641">
  <defs>
    <style>
      .cls-1 {
        fill: #5b93ff;
      }
    </style>
  </defs>
  <path id="diabetes" class="cls-1" d="M121.529,72.978a7.258,7.258,0,0,1-1.4,7.393,11.244,11.244,0,0,1,3.151,8.8c-.53,5.969-6.048,10.666-12.539,10.666h-.159a47.478,47.478,0,0,1-7.1-.886C93.9,96.285,87.181,87.862,87.1,78.425c-.159-1.794,0-5.648,0-5.81.038-9.377,6.766-17.843,16.387-20.524a24.3,24.3,0,0,1,6.491-.892h.724c6.529,0,12.052,4.718,12.582,10.666a11.247,11.247,0,0,1-2.613,8.212h2.405c5.7,0,8.955,4.2,8.955,11.52V98.39a1.451,1.451,0,0,1-2.9,0V81.6c0-3.929-1.046-8.62-6.053-8.62Zm-8.3,13.592c-2.283-1.335-3.532-6.3-4.818-5.518-1.408.873-1.154,4.61-.684,6.68s3.094,4.2,5.556,3.108a2.01,2.01,0,0,0,1.321-1.873,2.694,2.694,0,0,0-1.373-2.4Zm-5.161-14.4c-1.451-.832-5.8-3.345-5.8,1.678s5.807,1.67,5.807,1.67,1.451-.835,1.451-1.67c0,0,0-.843-1.451-1.675Zm4.459-13.43c-2.481-1.067-5.118,1.081-5.553,3.159s-.7,5.8.749,6.648c1.3.765,2.513-4.194,4.791-5.545a2.686,2.686,0,0,0,1.365-2.4,2,2,0,0,0-1.351-1.859Z" transform="translate(-87.029 -51.2)"/>
</svg>
