<svg xmlns="http://www.w3.org/2000/svg" width="46.005" height="46" viewBox="0 0 46.005 46">
  <defs>
    <style>
      .cls-1 {
        fill: #5b93ff;
      }
    </style>
  </defs>
  <path id="download" class="cls-1" d="M229.242,186.124a1.446,1.446,0,1,1,0,2.86H186.125a1.447,1.447,0,0,1,0-2.86Zm-4.53-24.075a2.889,2.889,0,0,1-.623,3.285l-14.349,14.221a2.932,2.932,0,0,1-2.039.857,2.843,2.843,0,0,1-2.039-.857l-14.384-14.384a2.888,2.888,0,0,1,2.032-4.927h5.755v-14.32A2.888,2.888,0,0,1,201.953,143h11.5a2.888,2.888,0,0,1,2.853,2.924v14.32h5.748A2.915,2.915,0,0,1,224.711,162.049Zm0,0" transform="translate(-184.9 -143)"/>
</svg>
