<svg xmlns="http://www.w3.org/2000/svg" width="56.864" height="44.009" viewBox="0 0 56.864 44.009">
  <defs>
    <style>
      .cls-1 {
        fill: #5b93ff;
      }
    </style>
  </defs>
  <g id="education" transform="translate(0 -115.569)">
    <path id="路径_206" data-name="路径 206" class="cls-1" d="M56.267,158.374a2.815,2.815,0,1,1-.682-3.922,2.792,2.792,0,0,1,.682,3.922m-27.85-20.717a5.768,5.768,0,0,1-2.472-.369L3.211,130.894A4.466,4.466,0,0,1,0,126.631a4.623,4.623,0,0,1,2.842-4.263l23.1-6.394c1.421-.341,3.552-.71,4.973,0l22.734,6.394a4.466,4.466,0,0,1,3.211,4.263,4.623,4.623,0,0,1-2.842,4.263l-23.1,6.394a5.9,5.9,0,0,1-2.5.369Z" transform="translate(0 0)"/>
    <path id="路径_207" data-name="路径 207" class="cls-1" d="M177.18,465.328H153.735a7.884,7.884,0,0,1-7.815-7.815v-13.5a1.826,1.826,0,0,1,.71-1.421,2.036,2.036,0,0,1,1.421-.369L165.1,447.2a2.188,2.188,0,0,0,2.131,0l15.26-4.973c.71,0,1.051,0,1.421.369a1.826,1.826,0,0,1,.71,1.421v13.5A7.35,7.35,0,0,1,177.18,465.328Zm14.607-8.3a1.686,1.686,0,0,1-1.79-1.79V442.11a1.79,1.79,0,1,1,3.581,0v13.129A1.716,1.716,0,0,1,191.787,457.03Zm-4.49,2.614" transform="translate(-137.821 -306.726)"/>
  </g>
</svg>
