<svg xmlns="http://www.w3.org/2000/svg" width="48.244" height="48.244" viewBox="0 0 48.244 48.244">
  <defs>
    <style>
      .cls-1 {
        fill: #5b93ff;
      }
    </style>
  </defs>
  <path id="epilepsy" class="cls-1" d="M127.406,177.814a24.122,24.122,0,1,0,24.121,24.121A24.122,24.122,0,0,0,127.406,177.814Zm-13.571,24.728a1.642,1.642,0,0,1,.3-2.111l4.075-3.169-4.069-3.165a1.508,1.508,0,0,1,1.809-2.412l5.428,4.221a1.6,1.6,0,0,1,.533,1.35,1.49,1.49,0,0,1-.539,1.366l-5.428,4.221a1.612,1.612,0,0,1-.9.3A1.368,1.368,0,0,1,113.835,202.542Zm24.725,13.813a1.351,1.351,0,0,1-.146.054c0,.15-.306.15-.461.15a1.317,1.317,0,0,1-1.357-.9,9.932,9.932,0,0,0-18.393,0,1.527,1.527,0,0,1-2.865-1.055,13.078,13.078,0,0,1,12.066-8.145,12.813,12.813,0,0,1,11.91,7.99A1.45,1.45,0,0,1,138.56,216.355Zm2.418-15.926a1.623,1.623,0,0,1,.3,2.111,1.371,1.371,0,0,1-1.209.6,2.13,2.13,0,0,1-.9-.3l-5.428-4.221a1.5,1.5,0,0,1-.618-1.4,1.473,1.473,0,0,1,.559-1.27l.053-.04,5.427-4.221a1.508,1.508,0,0,1,1.871,2.366l-.062.046-4.067,3.164Z" transform="translate(-103.283 -177.814)"/>
</svg>
