<svg id="family" xmlns="http://www.w3.org/2000/svg" xmlns:xlink="http://www.w3.org/1999/xlink" width="67.368" height="55.134" viewBox="0 0 67.368 55.134">
  <defs>
    <style>
      .cls-1 {
        fill: url(#linear-gradient);
      }

      .cls-2 {
        fill: #fff;
      }
    </style>
    <linearGradient id="linear-gradient" y1="0.089" x2="1" y2="1" gradientUnits="objectBoundingBox">
      <stop offset="0" stop-color="#35b0ef"/>
      <stop offset="1" stop-color="#aa7ef6"/>
    </linearGradient>
  </defs>
  <path id="联合_1" data-name="联合 1" class="cls-1" d="M792.549,224.765a6.436,6.436,0,0,1-6.436-6.436V194.813h-6.866a3.218,3.218,0,0,1-1.689-5.959l30.465-18.746a3.218,3.218,0,0,1,3.375,0l30.465,18.746a3.218,3.218,0,0,1-1.687,5.959h-6.865v23.515a6.437,6.437,0,0,1-6.436,6.436Z" transform="translate(-776.026 -169.63)"/>
  <path id="路径_194" data-name="路径 194" class="cls-2" d="M808.127,194.614a6.079,6.079,0,0,0-9,.442,6.255,6.255,0,0,0,.587,8.339l7.322,7.322a1.54,1.54,0,0,0,2.179,0l7.322-7.322a6.255,6.255,0,0,0,.587-8.339A6.081,6.081,0,0,0,808.127,194.614Z" transform="translate(-774.443 -170.089)"/>
</svg>
