<svg xmlns="http://www.w3.org/2000/svg" width="48.334" height="42.992" viewBox="0 0 48.334 42.992">
  <defs>
    <style>
      .cls-1 {
        fill: #5b93ff;
      }
    </style>
  </defs>
  <g id="hypertension" transform="translate(-153.6 -221.44)">
    <path id="路径_200" data-name="路径 200" class="cls-1" d="M649.715,462.31a2.035,2.035,0,1,0-2.035-2.035A2.063,2.063,0,0,0,649.715,462.31Z" transform="translate(-461.349 -221.113)"/>
    <path id="路径_201" data-name="路径 201" class="cls-1" d="M187.519,221.44a15,15,0,0,0-9.921,3.731,14.346,14.346,0,0,0-24,10.6,18.48,18.48,0,0,0,1.866,8.395,5.047,5.047,0,0,0,1.442,1.866l8.564-.424,2.12-8.734a1.629,1.629,0,0,1,1.526-1.272,1.6,1.6,0,0,1,1.7,1.018l4.24,10.26,3.137-7.8a1.658,1.658,0,0,1,1.611-1.1h3.307a5.431,5.431,0,1,1,.339,3.392h-2.459l-4.24,10.6a2.3,2.3,0,0,1-1.781,1.018,1.675,1.675,0,0,1-1.526-1.018l-3.816-9.243-1.187,4.918a1.612,1.612,0,0,1-1.526,1.272l-7.632.424c.085.763,2.374,3.137,2.374,3.137a86.116,86.116,0,0,0,10.091,8.649c1.781,1.272,4.833,2.968,4.918,3.053a1.636,1.636,0,0,0,.848.254,2.476,2.476,0,0,0,.763-.17,57.4,57.4,0,0,0,5.512-3.053c7.8-5.257,18.146-13.567,18.146-25.439a14.385,14.385,0,0,0-14.415-14.331Z" transform="translate(0 0)"/>
  </g>
</svg>
