<svg xmlns="http://www.w3.org/2000/svg" xmlns:xlink="http://www.w3.org/1999/xlink" width="58" height="56" viewBox="0 0 58 56">
  <defs>
    <style>
      .cls-1 {
        fill: url(#linear-gradient);
      }
    </style>
    <linearGradient id="linear-gradient" y1="0.089" x2="1" y2="1" gradientUnits="objectBoundingBox">
      <stop offset="0" stop-color="#35b0ef"/>
      <stop offset="1" stop-color="#aa7ef6"/>
    </linearGradient>
  </defs>
  <path id="information" class="cls-1" d="M-9726-4606a6,6,0,0,1-6-6v-14a6,6,0,0,1,6-6h14a6,6,0,0,1,6,6v14a6,6,0,0,1-6,6Zm33-7a3,3,0,0,1-3-3,3,3,0,0,1,3-3h16a3,3,0,0,1,3,3,3,3,0,0,1-3,3Zm.5-11a3.5,3.5,0,0,1-3.5-3.5,3.5,3.5,0,0,1,3.5-3.5h15a3.5,3.5,0,0,1,3.5,3.5,3.5,3.5,0,0,1-3.5,3.5Zm0-12a3.5,3.5,0,0,1-3.5-3.5,3.5,3.5,0,0,1,3.5-3.5h15a3.5,3.5,0,0,1,3.5,3.5,3.5,3.5,0,0,1-3.5,3.5Zm-33.5,0a6,6,0,0,1-6-6v-14a6,6,0,0,1,6-6h14a6,6,0,0,1,6,6v14a6,6,0,0,1-6,6Zm33-12a3,3,0,0,1-3-3,3,3,0,0,1,3-3h16a3,3,0,0,1,3,3,3,3,0,0,1-3,3Z" transform="translate(9732.001 4661.999)"/>
</svg>
