<svg xmlns="http://www.w3.org/2000/svg" xmlns:xlink="http://www.w3.org/1999/xlink" width="53.658" height="53.601" viewBox="0 0 53.658 53.601">
  <defs>
    <style>
      .cls-1 {
        fill: url(#linear-gradient);
      }
    </style>
    <linearGradient id="linear-gradient" y1="0.089" x2="1" y2="1" gradientUnits="objectBoundingBox">
      <stop offset="0" stop-color="#35b0ef"/>
      <stop offset="1" stop-color="#aa7ef6"/>
    </linearGradient>
  </defs>
  <path id="instal" class="cls-1" d="M686.344,360.56a7.6,7.6,0,0,1,2.621-5.724,4.328,4.328,0,0,0,1.1-4.851c-.1-.251-.2-.5-.31-.749a4.377,4.377,0,0,0-4.309-2.577,7.547,7.547,0,0,1-7.969-7.886,4.453,4.453,0,0,0-2.568-4.386q-.319-.137-.638-.266a4.476,4.476,0,0,0-5.007,1.115,7.574,7.574,0,0,1-11.28.092,4.446,4.446,0,0,0-4.9-1.283q-.415.164-.824.341a4.375,4.375,0,0,0-2.577,4.308,7.548,7.548,0,0,1-7.886,7.969,4.466,4.466,0,0,0-4.4,2.574q-.209.483-.4.973a4.209,4.209,0,0,0,1.26,4.667,7.575,7.575,0,0,1,.092,11.279,4.444,4.444,0,0,0-1.283,4.9q.164.415.34.824a4.376,4.376,0,0,0,4.308,2.577,7.548,7.548,0,0,1,7.97,7.886,4.451,4.451,0,0,0,2.568,4.386c.212.092.425.181.639.267a4.476,4.476,0,0,0,5.007-1.115,7.576,7.576,0,0,1,11.28-.092,4.444,4.444,0,0,0,4.9,1.283c.276-.109.551-.222.824-.34a4.376,4.376,0,0,0,2.577-4.308,7.547,7.547,0,0,1,7.886-7.97,4.464,4.464,0,0,0,4.4-2.573q.158-.365.3-.735a4.341,4.341,0,0,0-1.11-4.865A7.6,7.6,0,0,1,686.344,360.56ZM665.067,368a7.582,7.582,0,1,1,5.953-5.952A7.589,7.589,0,0,1,665.067,368Z" transform="translate(-636.735 -333.76)"/>
</svg>
