<svg xmlns="http://www.w3.org/2000/svg" width="45.333" height="56.13" viewBox="0 0 45.333 56.13">
  <defs>
    <style>
      .cls-1 {
        fill: #5b93ff;
      }
    </style>
  </defs>
  <path id="mentaldisorders" class="cls-1" d="M70.408,192.453c.1-.869-2.881-6.367-2.881-6.367v-.005c-1.4-2.8.654-4.433.744-5.88.654-6.653-1.489-10.8-4.474-13.98a20.414,20.414,0,0,0-15.288-6.27c-10.537.1-14.734,3.57-18,7.23C23.8,175,25.2,181.743,25.2,181.453c.091,4.05,5.5,11.378,5.5,11.378,4.283,6.367,1.489,14.37,1.489,14.37,8.671,2.025,17.529,8.872,17.529,8.872.376-1.927,3.354-6.945,3.354-6.945,1.774-2.22,4.663-1.448,6.249-1.252,4.474.577,5.595-.771,5.595-.771,1.023-.577.557-3.18.557-3.18a2.482,2.482,0,0,1,.557-2.5c.933-1.448.376-2.123.376-2.123-.278-.383-.091-.577-.091-.577,1.12-.383,1.21-.967,1.21-.967v-2.025c-.188-1.448.466-1.542.466-1.542C70.506,194.088,70.408,192.453,70.408,192.453ZM54.7,179.743l-2,2.763-4.968-4.871-4.975,4.871-1.99-2.763,4.558-4.474-4.558-4.474,1.99-2.763,4.975,4.878,4.968-4.878,2,2.763-4.558,4.474Z" transform="translate(-25.078 -159.943)"/>
</svg>
