<svg xmlns="http://www.w3.org/2000/svg" width="43.361" height="49.421" viewBox="0 0 43.361 49.421">
  <defs>
    <style>
      .cls-1 {
        fill: #5b93ff;
      }
    </style>
  </defs>
  <path id="oldman" class="cls-1" d="M131.123,68.576a6.238,6.238,0,0,0-2.159.415l-.166-.166L114.845,54.956a3.654,3.654,0,0,0-3.488-.914.081.081,0,0,0-.083.083,3.614,3.614,0,0,0-1.246.664c-8.554,5.149-14.451,17.523-14.451,27.822a16.325,16.325,0,0,0,0,3.488H122.4V72.562l1.329,1.329a4.565,4.565,0,0,0,.747.581,2.6,2.6,0,0,0,2.575,2.325,2.669,2.669,0,0,0,2.575-2.076h.083v-.5a1.578,1.578,0,0,1,3.156,0V86.1h4.152V74.223A6.108,6.108,0,0,0,131.123,68.576Zm7.641-25.33c-.249-.83-2.824-1.91-3.571-1.661l-.5.166L132.2,39.01a16.2,16.2,0,0,0-2.575-2.159c-1.412-.83-12.374,1.495-13.786,3.654a10.522,10.522,0,0,0-1,2.575l-.83,4.236-.5.166c-.83.249-2.491,2.408-2.325,3.239a1.539,1.539,0,0,0,1.91,1.08l3.322-.83a9.055,9.055,0,0,0,17.939-1.661,8.687,8.687,0,0,0-.5-2.99l3.9-1.08A1.784,1.784,0,0,0,138.763,43.246Zm-6.81-4.651.249.332C132.285,39.01,132.285,38.927,131.953,38.6Z" transform="translate(-95.467 -36.679)"/>
</svg>
