<svg xmlns="http://www.w3.org/2000/svg" width="39.677" height="48.94" viewBox="0 0 39.677 48.94">
  <defs>
    <style>
      .cls-1 {
        fill: #5b93ff;
      }
    </style>
  </defs>
  <g id="pregnantwoman" transform="translate(-147.483 -62.389)">
    <path id="路径_197" data-name="路径 197" class="cls-1" d="M187.13,87.781a95.663,95.663,0,0,0-2.81-15.76,23.2,23.2,0,0,0-2.855-7.008c-1.723-2.566-3.854-3.094-6.561-1.646a18.187,18.187,0,0,0-3.913,3.012,43.776,43.776,0,0,1-4.787,4.18,9.375,9.375,0,0,1-3.417,1.688c-1.054.227-1.181.129-.89-.885a14.158,14.158,0,0,1,3.125-5.953,1.71,1.71,0,0,0,.082-2.353,1.663,1.663,0,0,0-2.25-.4,9.048,9.048,0,0,0-1.594,1.2,19.95,19.95,0,0,0-3.436,4.693,12.652,12.652,0,0,1-2.056,2.876,8.187,8.187,0,0,0,.865,12.608c-.172.15-.332.3-.5.434a26.786,26.786,0,0,0-3.8,3.72,19.69,19.69,0,0,0-4.7,10.026,16.605,16.605,0,0,0,3.5,12.465,1.4,1.4,0,0,0,1.267.653q14.095-.033,28.19-.015h.9c-.523-4.21-1.031-8.341-1.559-12.47a.97.97,0,0,1,.358-.955,42.2,42.2,0,0,0,5.726-6.171,5.44,5.44,0,0,0,1.109-3.937Zm-4.308,2.488a57.541,57.541,0,0,1-7.321,7.1c-2.527,2.129-5.185,4.09-7.894,5.98-1.355.945-2.545.8-3.407-.4a2.521,2.521,0,0,1,.532-3.661c2.7-1.986,5.39-3.986,7.933-6.174,1.833-1.577,3.594-3.231,5.3-4.941a1.983,1.983,0,0,0,.627-1.8q-.879-6.218-1.727-12.441a16.923,16.923,0,0,1,.073-6.176,4.681,4.681,0,0,1,.2-.71c.136-.335.22-.782.65-.819.38-.033.58.34.762.626a18.549,18.549,0,0,1,1.944,4.766,88.609,88.609,0,0,1,3.068,15.855c.026.245.026.492.045.9.2.7-.294,1.31-.787,1.9Z" transform="translate(0 0)"/>
  </g>
</svg>
