<svg xmlns="http://www.w3.org/2000/svg" width="44" height="44.009" viewBox="0 0 44 44.009">
  <defs>
    <style>
      .cls-1 {
        fill: #5b93ff;
      }
    </style>
  </defs>
  <path id="track" class="cls-1" d="M152.31,126.639a5.447,5.447,0,0,0-3.878,2.051l-.2.294H145.6a8.568,8.568,0,0,0-8.637,7.967v.652a8.549,8.549,0,0,0,8.637,8.448h26.731a2.538,2.538,0,0,1,2.561,2.51v.459a2.542,2.542,0,0,1-2.542,2.217h-.982l-.2-.28a5.507,5.507,0,0,0-4.3-2.065h-.422a5.507,5.507,0,0,0-3.878,2.051l-.2.275H145.6a8.568,8.568,0,0,0-8.637,7.98v1.138A8.563,8.563,0,0,0,145.6,168.3h2.63l.206.28a5.47,5.47,0,0,0,4.3,2.07h.418a5.479,5.479,0,0,0,3.878-2.051l.2-.28h15.093a3.006,3.006,0,0,0,3.038-2.974v-.321a3.015,3.015,0,0,0-3.02-2.648H157.234l-.193-.3a5.507,5.507,0,0,0-4.309-2.07h-.418a5.479,5.479,0,0,0-3.878,2.047l-.2.275h-2.611a2.533,2.533,0,0,1-2.561-2.51v-.427a2.542,2.542,0,0,1,2.561-2.212H162.36l.2.275a5.507,5.507,0,0,0,4.3,2.07h.418a5.507,5.507,0,0,0,3.878-2.06l.206-.294h.964a8.554,8.554,0,0,0,8.632-8.426v-.174a8.549,8.549,0,0,0-8.637-8.462H145.6a2.538,2.538,0,0,1-2.556-2.51v-.459a2.542,2.542,0,0,1,2.542-2.212h2.634l.2.28a5.466,5.466,0,0,0,4.3,2.065h.418a5.461,5.461,0,0,0,3.878-2.047l.2-.28h15.107a3.01,3.01,0,0,0,3.038-2.978v-.321a3.015,3.015,0,0,0-3.038-2.662H157.239l-.2-.28a5.475,5.475,0,0,0-4.309-2.065Z" transform="translate(-136.96 -126.639)"/>
</svg>
