<svg xmlns="http://www.w3.org/2000/svg" width="58.848" height="49.498" viewBox="0 0 58.848 49.498">
  <defs>
    <style>
      .cls-1 {
        fill: #5b93ff;
      }
    </style>
  </defs>
  <path id="tuberculosis" class="cls-1" d="M57.815,27.511c-1.6-5.613-4.061-9.086-8.222-11.617a15.885,15.885,0,0,0-8.37-2.282,12.778,12.778,0,0,0-4.458.6,7.128,7.128,0,0,0-2.736,2.2,7.549,7.549,0,0,0-1.018,2.215l-1.549-1.549V2.029a2,2,0,1,0-4,0V17.08L25.92,18.624a7.476,7.476,0,0,0-1.015-2.209,7.107,7.107,0,0,0-2.736-2.2,12.778,12.778,0,0,0-4.458-.6A15.868,15.868,0,0,0,9.345,15.9c-4.164,2.537-6.622,6-8.225,11.617C-.01,31.475-.244,38.128.4,47.848a1.8,1.8,0,0,0,1.791,1.68H16.036A10.058,10.058,0,0,0,26.095,39.471V24.12l3.377-3.4,3.38,3.383V39.465A10.056,10.056,0,0,0,42.908,49.521H56.754a1.8,1.8,0,0,0,1.791-1.68c.64-9.72.406-16.373-.73-20.33Z" transform="translate(-0.047 -0.031)"/>
</svg>
