<svg xmlns="http://www.w3.org/2000/svg" width="40" height="40" viewBox="0 0 40 40">
  <defs>
    <style>
      .cls-1 {
        fill: #fff;
      }
    </style>
  </defs>
  <path id="user" class="cls-1" d="M20,0A20,20,0,1,0,40,20,20.007,20.007,0,0,0,20,0ZM10.14,32.56C11,30.76,16.24,29,20,29s9.02,1.76,9.86,3.56a15.851,15.851,0,0,1-19.72,0Zm22.58-2.9C29.86,26.18,22.92,25,20,25s-9.86,1.18-12.72,4.66A15.988,15.988,0,1,1,36,20,15.9,15.9,0,0,1,32.72,29.66ZM20,8a7,7,0,1,0,7,7A6.982,6.982,0,0,0,20,8Zm0,10a3,3,0,1,1,3-3A3,3,0,0,1,20,18Z"/>
</svg>
