<svg xmlns="http://www.w3.org/2000/svg" width="40.555" height="40.594" viewBox="0 0 40.555 40.594">
  <defs>
    <style>
      .cls-1 {
        fill: #4aa2fc;
      }
    </style>
  </defs>
  <g id="contract" transform="translate(0 0)">
    <path id="路径_50" data-name="路径 50" class="cls-1" d="M203.483,339.718H190.328a2.266,2.266,0,0,1-2.268-2.269v-3.635a2.271,2.271,0,0,1,2.268-2.27h1.488l2.5-4.332a4.085,4.085,0,1,1,5.192-.011L202,331.545h1.483a2.266,2.266,0,0,1,2.268,2.27v3.632a2.269,2.269,0,0,1-2.268,2.269Zm-6.579-18.2a2.53,2.53,0,1,0,2.532,2.528,2.53,2.53,0,0,0-2.532-2.528Zm.01,5.64-3.093,5.362h6.169l-3.076-5.361Zm7.429,7.928a1.282,1.282,0,0,0-1.1-1.405H190.569a1.281,1.281,0,0,0-1.1,1.405v1.4a1.282,1.282,0,0,0,1.1,1.405h12.673a1.281,1.281,0,0,0,1.1-1.405v-1.4Zm-20.9-10.444a1.361,1.361,0,1,1,0,2.722H173.406a1.362,1.362,0,1,1,0-2.722h10.036Zm-11.4-11.809a1.361,1.361,0,0,1,1.36-1.36h20.325a1.361,1.361,0,0,1,0,2.722H173.406a1.36,1.36,0,0,1-1.36-1.36Zm16.558,7.947h-15.2a1.357,1.357,0,0,1-1.36-1.36v0a1.36,1.36,0,0,1,1.36-1.36h15.2a1.36,1.36,0,0,1,1.36,1.36v0a1.361,1.361,0,0,1-1.36,1.361Z" transform="translate(-165.197 -299.125)"/>
    <path id="路径_51" data-name="路径 51" class="cls-1" d="M36,18.961a1.36,1.36,0,0,1-1.36-1.362V3.659a.908.908,0,0,0-.909-.909H4.245a.909.909,0,0,0-.908.908V36.987a.908.908,0,0,0,.908.909H19.532a1.362,1.362,0,1,1,0,2.725H2.883A2.266,2.266,0,0,1,.615,38.35V2.3A2.269,2.269,0,0,1,2.883.026H35.091A2.266,2.266,0,0,1,37.358,2.3V17.6A1.36,1.36,0,0,1,36,18.961Z" transform="translate(-0.615 -0.026)"/>
  </g>
</svg>
