<svg xmlns="http://www.w3.org/2000/svg" width="40" height="40.005" viewBox="0 0 40 40.005">
  <defs>
    <style>
      .cls-1 {
        fill: #4aa2fc;
      }
    </style>
  </defs>
  <path id="entry" class="cls-1" d="M61.2,63.813a1.511,1.511,0,0,0,1.491-1.531A11.352,11.352,0,0,0,59.462,54.3a11.048,11.048,0,0,0-3.184-2.269,6.841,6.841,0,0,0,1.987-4.816,6.594,6.594,0,1,0-13.184,0,6.855,6.855,0,0,0,1.987,4.84,11.376,11.376,0,0,0-6.411,10.28,1.49,1.49,0,1,0,2.979,0,8.038,8.038,0,1,1,16.072,0A1.5,1.5,0,0,0,61.2,63.813ZM51.673,43.48a3.433,3.433,0,0,1,3.611,3.707,3.612,3.612,0,1,1-3.611-3.707ZM33.366,45.333a1.424,1.424,0,0,0,1.4-1.435V36.005a1.12,1.12,0,0,1,1.1-1.133h8.176a1.436,1.436,0,0,0,0-2.872H35.87a3.971,3.971,0,0,0-3.9,4.005V43.9a1.425,1.425,0,0,0,1.4,1.437Zm10.677,23.8H35.87A1.12,1.12,0,0,1,34.766,68V60.128a1.4,1.4,0,1,0-2.8,0V68A3.973,3.973,0,0,0,35.87,72h8.176a1.436,1.436,0,0,0,0-2.872ZM70.566,58.69a1.424,1.424,0,0,0-1.4,1.437V68a1.12,1.12,0,0,1-1.1,1.133H59.886a1.436,1.436,0,0,0,0,2.872H68.06A3.97,3.97,0,0,0,71.966,68V60.128a1.411,1.411,0,0,0-1.4-1.437ZM68.06,32H59.889a1.436,1.436,0,0,0,0,2.872h8.173a1.12,1.12,0,0,1,1.1,1.133V43.9a1.4,1.4,0,1,0,2.8,0v-7.9A3.944,3.944,0,0,0,68.062,32Z" transform="translate(-31.966 -32)"/>
</svg>
