<svg xmlns="http://www.w3.org/2000/svg" width="39.903" height="42.563" viewBox="0 0 39.903 42.563">
  <defs>
    <style>
      .cls-1 {
        fill: #4aa2fc;
      }
    </style>
  </defs>
  <g id="familydata" transform="translate(0 0)">
    <path id="路径_53" data-name="路径 53" class="cls-1" d="M71.538,32.87a15.7,15.7,0,0,1-3-4.2,3.723,3.723,0,0,0,.875-2.4V18.7a6.242,6.242,0,0,0-6.235-6.235H58.186a6.208,6.208,0,0,0-4.131,1.571,6.245,6.245,0,0,0-5.845-4.065H38.235A6.242,6.242,0,0,0,32,16.211V26.27A3.738,3.738,0,0,0,37.451,29.6a1.246,1.246,0,0,0,.293.177l1.738.745v8.305a3.745,3.745,0,0,0,3.741,3.741H60.68a3.745,3.745,0,0,0,3.741-3.741V35h6.235a1.247,1.247,0,0,0,.882-2.129ZM54.446,21.282V18.7a3.745,3.745,0,0,1,3.741-3.741h4.988A3.745,3.745,0,0,1,66.915,18.7V26.27a1.247,1.247,0,0,1-2.494,0V21.282a1.247,1.247,0,1,0-2.494,0v1.1L55.692,25.05c0-.009,0-.018,0-.028a4.968,4.968,0,0,0-1.306-3.361A1.245,1.245,0,0,0,54.446,21.282ZM53.2,25.023A2.494,2.494,0,1,1,50.7,22.529,2.5,2.5,0,0,1,53.2,25.023ZM38.235,17.458a1.247,1.247,0,0,0-1.247,1.247V26.27a1.247,1.247,0,1,1-2.494,0V16.211a3.745,3.745,0,0,1,3.741-3.741h9.976a3.745,3.745,0,0,1,3.741,3.741v3.982a4.99,4.99,0,0,0-6.235,4.83c0,.009,0,.018,0,.028l-6.236-2.672V18.705A1.247,1.247,0,0,0,38.235,17.458ZM44.47,40.069H43.223a1.248,1.248,0,0,1-1.247-1.247V31.586l2.494,1.069Zm9.976-8.237v8.237H46.964V31.833a1.247,1.247,0,0,0-.756-1.146l-7-3a3.72,3.72,0,0,0,.279-1.415V25.091l7.456,3.2a4.977,4.977,0,0,0,7.533,0l7.456-3.2V26.27a3.72,3.72,0,0,0,.279,1.415l-7,3a1.247,1.247,0,0,0-.756,1.146Zm8.729.672a1.247,1.247,0,0,0-1.247,1.247v5.071a1.248,1.248,0,0,1-1.247,1.247H56.94V32.655l6.443-2.761a1.24,1.24,0,0,0,.471-.354,3.727,3.727,0,0,0,2.528.4A18.161,18.161,0,0,0,67.948,32.5ZM44.47,0a4.988,4.988,0,1,0,4.988,4.988A4.994,4.994,0,0,0,44.47,0Zm0,7.482a2.494,2.494,0,1,1,2.494-2.494A2.5,2.5,0,0,1,44.47,7.482Z" transform="translate(-32 0)"/>
    <path id="路径_54" data-name="路径 54" class="cls-1" d="M576.988,60a4.988,4.988,0,1,0,4.988,4.988A4.994,4.994,0,0,0,576.988,60Zm0,7.482a2.494,2.494,0,1,1,2.494-2.494A2.5,2.5,0,0,1,576.988,67.482Z" transform="translate(-549.554 -57.506)"/>
  </g>
</svg>
