<svg xmlns="http://www.w3.org/2000/svg" width="40" height="40" viewBox="0 0 40 40">
  <defs>
    <style>
      .cls-1 {
        fill: #4aa2fc;
      }
    </style>
  </defs>
  <path id="file" class="cls-1" d="M54,89.85A4.16,4.16,0,0,1,49.85,85.7V61.734h5.744V54a4.16,4.16,0,0,1,4.155-4.153H79.555A4.16,4.16,0,0,1,83.71,54v7.731h6.14V85.7A4.159,4.159,0,0,1,85.7,89.85ZM52.217,85.7A1.768,1.768,0,0,0,54,87.482H85.7A1.768,1.768,0,0,0,87.482,85.7V64.1H83.71V76.109a4.16,4.16,0,0,1-4.155,4.155H59.749a4.16,4.16,0,0,1-4.155-4.155V64.1H52.217Zm7.531-33.478A1.769,1.769,0,0,0,57.961,54v22.1A1.768,1.768,0,0,0,59.749,77.9H79.555a1.768,1.768,0,0,0,1.787-1.787V54a1.768,1.768,0,0,0-1.787-1.787Zm1.787,19.807V69.657H77.768v2.368Zm0-6.417V63.239H77.768v2.368Zm0-6.457V56.782H77.768V59.15Z" transform="translate(-49.85 -49.85)"/>
</svg>
