<svg xmlns="http://www.w3.org/2000/svg" xmlns:xlink="http://www.w3.org/1999/xlink" width="231.479" height="113.584" viewBox="0 0 231.479 113.584">
  <defs>
    <style>
      .cls-1, .cls-2 {
        fill: #fff;
      }

      .cls-1 {
        font-size: 40px;
        font-family: PingFang SC Medium, PingFang SC;
      }

      .cls-3 {
        filter: url(#icon);
      }
    </style>
    <filter id="icon" x="0" y="0" width="119.324" height="113.584" filterUnits="userSpaceOnUse">
      <feOffset input="SourceAlpha"/>
      <feGaussianBlur stdDeviation="10" result="blur"/>
      <feFlood flood-color="#2698ff" flood-opacity="0.341"/>
      <feComposite operator="in" in2="blur"/>
      <feComposite in="SourceGraphic"/>
    </filter>
  </defs>
  <g id="icon_b" transform="translate(-229 -76)">
    <text id="医讯通" class="cls-1" transform="translate(340.479 152)"><tspan x="0" y="0">医讯通</tspan></text>
    <g class="cls-3" transform="matrix(1, 0, 0, 1, 229, 76)">
      <path id="icon-2" data-name="icon" class="cls-2" d="M123.928,113.495,96.4,95.267a2.946,2.946,0,0,0-3.3,0l-8.64,5.654V95.095A1.7,1.7,0,0,0,82.759,93.4H75.985a1.7,1.7,0,0,0-1.695,1.695v12.481l-8.892,5.84a.834.834,0,0,0-.252,1.192.875.875,0,0,0,.675.424.639.639,0,0,0,.424-.172l2.966-1.94v29.828a4.2,4.2,0,0,0,4.231,4.237H115.8a4.194,4.194,0,0,0,4.231-4.237V112.965l2.966,1.973a.859.859,0,0,0,.934-1.443ZM105.475,126.9l-7.76,8.164a4.013,4.013,0,0,1-3.026,1.311,4.429,4.429,0,0,1-3.125-1.311l-7.449-7.859a6.24,6.24,0,0,1-1.715-4.641,6.668,6.668,0,0,1,10.991-4.84,5.975,5.975,0,0,1,1.3,1.516,7.494,7.494,0,0,1,1.41-1.616,6.626,6.626,0,0,1,9.369,9.276Z" transform="translate(-35 -63.4)"/>
    </g>
  </g>
</svg>
