<svg xmlns="http://www.w3.org/2000/svg" width="42.169" height="30.455" viewBox="0 0 42.169 30.455">
  <defs>
    <style>
      .cls-1 {
        fill: #1acec5;
      }
    </style>
  </defs>
  <g id="id" transform="translate(0 0)">
    <path id="路径_1" data-name="路径 1" class="cls-1" d="M250.817,106.667h-32.8a4.691,4.691,0,0,0-4.686,4.686v21.085a4.69,4.69,0,0,0,4.686,4.685h32.8a4.689,4.689,0,0,0,4.685-4.685V111.352A4.69,4.69,0,0,0,250.817,106.667Zm2.342,25.77a2.346,2.346,0,0,1-2.343,2.343h-32.8a2.346,2.346,0,0,1-2.343-2.343V111.353a2.346,2.346,0,0,1,2.343-2.343h32.8a2.345,2.345,0,0,1,2.342,2.343Zm0,0" transform="translate(-213.333 -106.667)"/>
    <path id="路径_2" data-name="路径 2" class="cls-1" d="M363.427,269.346a5.563,5.563,0,0,0,2.051-4.281,5.761,5.761,0,0,0-11.52,0,5.56,5.56,0,0,0,2.051,4.281,7.89,7.89,0,0,0-4.355,7.01,1.152,1.152,0,0,0,2.3,0,5.762,5.762,0,0,1,11.521,0,1.152,1.152,0,0,0,2.3,0,7.891,7.891,0,0,0-4.355-7.01Zm-7.167-4.281a3.457,3.457,0,1,1,3.456,3.387,3.422,3.422,0,0,1-3.456-3.387Zm-5.76-3.388H336.675a1.129,1.129,0,1,0,0,2.259H350.5a1.13,1.13,0,1,0,0-2.259Zm-1.152,5.646H336.675a1.129,1.129,0,1,0,0,2.258h12.672a1.129,1.129,0,1,0,0-2.258Zm-3.456,5.646h-9.216a1.129,1.129,0,1,0,0,2.259h9.216a1.13,1.13,0,1,0,0-2.259Zm0,0" transform="translate(-330.567 -253.223)"/>
  </g>
</svg>
