<svg xmlns="http://www.w3.org/2000/svg" width="13.001" height="24.706" viewBox="0 0 13.001 24.706">
  <defs>
    <style>
      .cls-1 {
        fill: #fff;
      }
    </style>
  </defs>
  <g id="password" transform="translate(0 0)">
    <path id="减去_1" data-name="减去 1" class="cls-1" d="M7.162,24.706a.513.513,0,0,1-.346-.134L4.95,22.505a.773.773,0,0,1-.211-.571V12.7A6.477,6.477,0,1,1,10.772,1.593,6.466,6.466,0,0,1,8.261,12.7v1.049a.8.8,0,0,0,.271.629l1.776,1.8a.687.687,0,0,1,0,1.019L8.834,18.7a.568.568,0,0,0,0,.78l1.383,1.378a.536.536,0,0,1,0,.719l-2.709,3A.513.513,0,0,1,7.162,24.706ZM6.5,2.6A1.3,1.3,0,1,0,7.8,3.9,1.3,1.3,0,0,0,6.5,2.6Z"/>
  </g>
</svg>
